<?xml version="1.0" encoding="UTF-8"?>
<svg width="12px" height="11px" viewBox="0 0 12 11" version="1.1" xmlns="http://www.w3.org/2000/svg" xmlns:xlink="http://www.w3.org/1999/xlink">
    <title>browsers</title>
    <g id="Page-1" stroke="none" stroke-width="1" fill="none" fill-rule="evenodd">
        <g id="2.2-Help-in-disasters" transform="translate(-907.000000, -1027.000000)" fill="#2F2F39" fill-rule="nonzero">
            <g id="N1-Useful-Links" transform="translate(875.000000, 568.000000)">
                <g id="browsers" transform="translate(32.000000, 459.000000)">
                    <path d="M9.28,9.6 L1.92,9.6 C1.21308,9.6 0.64,9.02692 0.64,8.32 L0.64,2.24 C0.64,2.06328 0.49672,1.92 0.32,1.92 C0.14328,1.92 0,2.06328 0,2.24 L0,8.32 C0,9.3804 0.8596,10.24 1.92,10.24 L9.28,10.24 C9.45672,10.24 9.6,10.09672 9.6,9.92 C9.6,9.74328 9.45672,9.6 9.28,9.6 Z M10.24,0 L3.2,0 C2.49308,0 1.92,0.57308 1.92,1.28 L1.92,7.04 C1.92,7.74692 2.49308,8.32 3.2,8.32 L10.24,8.32 C10.94692,8.32 11.52,7.74692 11.52,7.04 L11.52,1.28 C11.52,0.57308 10.94692,0 10.24,0 Z M2.56,1.28 C2.56,0.92652 2.84652,0.64 3.2,0.64 L4.48,0.64 L4.48,1.92 L2.56,1.92 L2.56,1.28 Z M10.88,7.04 C10.88,7.39348 10.59348,7.68 10.24,7.68 L3.2,7.68 C2.84652,7.68 2.56,7.39348 2.56,7.04 L2.56,2.56 L10.88,2.56 L10.88,7.04 Z M10.88,1.92 L5.12,1.92 L5.12,0.64 L10.24,0.64 C10.59348,0.64 10.88,0.92652 10.88,1.28 L10.88,1.92 Z" id="Shape"></path>
                </g>
            </g>
        </g>
    </g>
</svg>